{
    "format": {
        "bit_rate": "96593444",
        "duration": "6.506500",
        "filename": "C:/Footages/import_test/P1066762.MOV",
        "format_long_name": "QuickTime / MOV",
        "format_name": "mov,mp4,m4a,3gp,3g2,mj2",
        "nb_programs": 0,
        "nb_streams": 3,
        "probe_score": 100,
        "size": "78560656",
        "start_time": "0.000000",
        "tags": {
            "com.panasonic.Semi-Pro.metadata.xml": "<?xml version=\"1.0\" encoding=\"UTF-8\" standalone=\"no\" ?>\n<ClipMain xmlns:xsi=\"http://www.w3.org/2001/XMLSchema-instance\" xmlns=\"urn:schemas-Professional-Plug-in:Semi-Pro:ClipMetadata:v1.0\">\n  <ClipContent>\n    <GlobalClipID>060A2B340101010501010D2113000000BF635345B06413347F580E60B8E00036</GlobalClipID>\n    <Duration>156</Duration>\n    <EditUnit>1001/24000</EditUnit>\n    <EssenceList>\n      <Video>\n        <Codec BitRate=\"100\">H264_420_LongGOP</Codec>\n        <ActiveLine>2160</ActiveLine>\n        <ActivePixel>4096</ActivePixel>\n        <BitDepth>8</BitDepth>\n        <FrameRate>23.98p</FrameRate>\n        <TimecodeType>NonDrop</TimecodeType>\n        <StartTimecode>06:15:44:14</StartTimecode>\n      </Video>\n      <Audio>\n        <Channel>2</Channel>\n        <SamplingRate>48000</SamplingRate>\n        <BitsPerSample>16</BitsPerSample>\n      </Audio>\n    </EssenceList>\n    <ClipMetadata>\n      <Rating>0</Rating>\n      <Access>\n        <CreationDate>2017-06-28T14:34:24+09:00</CreationDate>\n        <LastUpdateDate>2017-06-28T14:34:24+09:00</LastUpdateDate>\n      </Access>\n      <Device>\n        <Manufacturer>Panasonic</Manufacturer>\n        <ModelName>DC-GH5</ModelName>\n      </Device>\n      <Shoot>\n        <StartDate>2017-06-28T14:34:24+09:00</StartDate>\n      </Shoot>\n    </ClipMetadata>\n  </ClipContent>\n  <UserArea>\n    <AcquisitionMetadata xmlns=\"urn:schemas-Professional-Plug-in:P2:CameraMetadata:v1.0\">\n      <CameraUnitMetadata>\n        <Gamma>\n          <CaptureGamma>V-LogL</CaptureGamma>\n        </Gamma>\n        <Gamut>\n          <CaptureGamut>V-Gamut</CaptureGamut>\n        </Gamut>\n      </CameraUnitMetadata>\n    </AcquisitionMetadata>\n  </UserArea>\n</ClipMain>\n",
            "compatible_brands": "qt  pana",
            "creation_time": "2017-06-28T14:34:24.000000Z",
            "major_brand": "qt  ",
            "minor_version": "537986816"
        }
    },
    "streams": [
        {
            "avg_frame_rate": "24000/1001",
            "bit_rate": "94774630",
            "bits_per_raw_sample": "8",
            "chroma_location": "left",
            "codec_long_name": "H.264 / AVC / MPEG-4 AVC / MPEG-4 part 10",
            "codec_name": "h264",
            "codec_tag": "0x31637661",
            "codec_tag_string": "avc1",
            "codec_time_base": "1001/48000",
            "codec_type": "video",
            "coded_height": 2160,
            "coded_width": 4096,
            "color_primaries": "bt709",
            "color_range": "pc",
            "color_space": "bt709",
            "color_transfer": "bt709",
            "display_aspect_ratio": "256:135",
            "disposition": {
                "attached_pic": 0,
                "clean_effects": 0,
                "comment": 0,
                "default": 1,
                "dub": 0,
                "forced": 0,
                "hearing_impaired": 0,
                "karaoke": 0,
                "lyrics": 0,
                "original": 0,
                "timed_thumbnails": 0,
                "visual_impaired": 0
            },
            "duration": "6.506500",
            "duration_ts": 156156,
            "has_b_frames": 1,
            "height": 2160,
            "index": 0,
            "is_avc": "true",
            "level": 51,
            "nal_length_size": "4",
            "nb_frames": "156",
            "pix_fmt": "yuvj420p",
            "profile": "High",
            "r_frame_rate": "24000/1001",
            "refs": 1,
            "sample_aspect_ratio": "1:1",
            "start_pts": 2002,
            "start_time": "0.083417",
            "tags": {
                "creation_time": "2017-06-28T14:34:24.000000Z",
                "language": "und",
                "timecode": "06:15:44:14"
            },
            "time_base": "1/24000",
            "width": 4096
        },
        {
            "avg_frame_rate": "0/0",
            "bit_rate": "1536000",
            "bits_per_sample": 16,
            "channels": 2,
            "codec_long_name": "PCM signed 16-bit big-endian",
            "codec_name": "pcm_s16be",
            "codec_tag": "0x736f7774",
            "codec_tag_string": "twos",
            "codec_time_base": "1/48000",
            "codec_type": "audio",
            "disposition": {
                "attached_pic": 0,
                "clean_effects": 0,
                "comment": 0,
                "default": 1,
                "dub": 0,
                "forced": 0,
                "hearing_impaired": 0,
                "karaoke": 0,
                "lyrics": 0,
                "original": 0,
                "timed_thumbnails": 0,
                "visual_impaired": 0
            },
            "duration": "6.506500",
            "duration_ts": 312312,
            "index": 1,
            "nb_frames": "312312",
            "r_frame_rate": "0/0",
            "sample_fmt": "s16",
            "sample_rate": "48000",
            "start_pts": 0,
            "start_time": "0.000000",
            "tags": {
                "creation_time": "2017-06-28T14:34:24.000000Z",
                "language": "und",
                "timecode": "06:15:44:14"
            },
            "time_base": "1/48000"
        },
        {
            "avg_frame_rate": "24/1",
            "bit_rate": "767",
            "codec_tag": "0x64636d74",
            "codec_tag_string": "tmcd",
            "codec_type": "data",
            "disposition": {
                "attached_pic": 0,
                "clean_effects": 0,
                "comment": 0,
                "default": 1,
                "dub": 0,
                "forced": 0,
                "hearing_impaired": 0,
                "karaoke": 0,
                "lyrics": 0,
                "original": 0,
                "timed_thumbnails": 0,
                "visual_impaired": 0
            },
            "duration": "6.506500",
            "duration_ts": 156156,
            "index": 2,
            "nb_frames": "156",
            "r_frame_rate": "0/0",
            "start_pts": 0,
            "start_time": "0.000000",
            "tags": {
                "creation_time": "2017-06-28T14:34:24.000000Z",
                "language": "und",
                "timecode": "06:15:44:14"
            },
            "time_base": "1/24000"
        }
    ]
}